/vscmnt/brussel_pixiu_data/_data_brussel/112/vsc11236/PredSimResults/SUBJ07opt3D/trackIG/worker_10.mot
version=1
nRows=7
nColumns=50
inDegrees=yes
endheader
                time	         pelvis_tilt	         pelvis_list	     pelvis_rotation	           pelvis_tx	           pelvis_ty	           pelvis_tz	       hip_flexion_r	     hip_adduction_r	      hip_rotation_r	        knee_angle_r	       ankle_angle_r	         mtp_angle_r	       hip_flexion_l	     hip_adduction_l	      hip_rotation_l	        knee_angle_l	       ankle_angle_l	         mtp_angle_l	    lumbar_extension	      lumbar_bending	     lumbar_rotation	 ercspn_r/activation	 intobl_r/activation	 extobl_r/activation	    abd_r/activation	    add_r/activation	hamstrings_r/activation	bifemsh_r/activation	glut_max_r/activation	iliopsoas_r/activation	rect_fem_r/activation	  vasti_r/activation	gastroc_r/activation	 soleus_r/activation	tib_ant_r/activation	 ercspn_l/activation	 intobl_l/activation	 extobl_l/activation	    abd_l/activation	    add_l/activation	hamstrings_l/activation	bifemsh_l/activation	glut_max_l/activation	iliopsoas_l/activation	rect_fem_l/activation	  vasti_l/activation	gastroc_l/activation	 soleus_l/activation	tib_ant_l/activation	
          1.46036324	         -6.24206105	          1.40569312	         -8.30958973	          2.19054485	          0.84435628	          0.00929364	        -12.40611482	         -1.31251461	          3.09170595	        -13.30468891	          4.47854535	         34.06061356	         32.56265620	         -1.44477611	         -4.30994251	         -5.83222252	          4.18107210	          0.30336708	        -13.59991248	         -0.53505389	          2.87157252	          0.11384395	          0.00999999	          0.01000000	          0.01824807	          0.04980799	          0.01415262	          0.09757517	          0.01553737	          0.05307617	          0.07810271	          0.02465047	          0.23270989	          0.23831766	          0.01162261	          0.13724920	          0.12887610	          0.01000000	          0.02602690	          0.15177032	          0.12134455	          0.20465533	          0.06156606	          0.05711280	          0.01000000	          0.00999999	          0.01298322	          0.00999999	          0.49067686	
          1.47009899	         -6.20020452	          1.31487306	         -8.33268811	          2.20810243	          0.84254059	          0.00879921	        -13.50943813	         -1.40918771	          2.83410797	        -13.36087197	          3.04646241	         35.12567300	         32.50148781	         -1.25371608	         -4.20798201	         -7.65515964	          3.68201426	          0.30278228	        -13.38056581	         -0.72386059	          3.08732693	          0.10453199	          0.00999999	          0.01000002	          0.01570047	          0.09953240	          0.02506021	          0.08395282	          0.01336822	          0.29180756	          0.06719886	          0.02120903	          0.20022145	          0.21629988	          0.00999999	          0.11808795	          0.11088381	          0.01000000	          0.02239330	          0.18887684	          0.10440373	          0.17608356	          0.14199510	          0.04913933	          0.01000001	          0.01000000	          0.01350854	          0.01350853	          0.50145092	
          1.47983475	         -6.15545664	          1.22509197	         -8.31221601	          2.22564046	          0.84074408	          0.00831407	        -14.31743319	         -1.47492699	          2.54685791	        -13.98484346	          1.72867327	         35.94090903	         32.36798540	         -1.13867923	         -3.98771000	         -9.60687572	          3.20602544	          0.27531647	        -13.18140863	         -0.93161894	          3.27670410	          0.15193040	          0.00999999	          0.01000000	          0.01350854	          0.09033917	          0.02156172	          0.08970620	          0.01150189	          0.31059129	          0.05781728	          0.01824806	          0.17226869	          0.18755202	          0.00999999	          0.12520307	          0.09540341	          0.00999999	          0.11323212	          0.19993145	          0.08982801	          0.15150068	          0.17788877	          0.04227903	          0.01000000	          0.00999999	          0.01162262	          0.01162261	          0.62116219	
          1.48957050	         -6.11158251	          1.12996925	         -8.24748161	          2.24297590	          0.83917407	          0.00776659	        -14.73757259	         -1.50837243	          2.24282315	        -15.30171241	          0.50824883	         36.42620066	         32.18000371	         -1.03199039	         -3.79428968	        -11.41049151	          2.64538878	          0.25374292	        -13.02343131	         -1.13866919	          3.43874990	          0.18191228	          0.00999999	          0.01000000	          0.01162262	          0.09487802	          0.01982747	          0.07718246	          0.01000000	          0.36551854	          0.04974545	          0.01570046	          0.14821839	          0.16136803	          0.00999999	          0.15365704	          0.08208421	          0.00999999	          0.17713529	          0.22318110	          0.07728720	          0.13034979	          0.22689893	          0.03637648	          0.00999999	          0.00999999	          0.01000000	          0.00999999	          0.68564482	
          1.49930626	         -6.06872324	          1.03600359	         -8.14383215	          2.25994976	          0.83802076	          0.00716187	        -14.70570956	         -1.51877482	          1.93859467	        -17.38823493	         -0.64872095	         36.47913791	         32.02175153	         -0.91833715	         -3.62210531	        -13.24853834	          2.25650241	          0.22123483	        -12.92065212	         -1.35219523	          3.57136907	          0.24351881	          0.00999999	          0.01000000	          0.01000000	          0.08782672	          0.02031138	          0.06640715	          0.00999999	          0.32103212	          0.04280053	          0.01350853	          0.12752573	          0.13883956	          0.00999999	          0.17374783	          0.07062450	          0.00999999	          0.23226504	          0.22909404	          0.06649719	          0.11215176	          0.27188042	          0.03129799	          0.01000000	          0.01255114	          0.01000000	          0.01000000	          0.67460225	
          1.50904201	         -6.02675110	          0.94954764	         -8.00375348	          2.27644814	          0.83746531	          0.00651503	        -14.19076957	         -1.51530310	          1.64422242	        -20.23948169	         -1.88932416	         36.08503532	         31.95201548	         -0.79650638	         -3.46552858	        -15.25146995	          2.27115299	          0.19017296	        -12.87831001	         -1.57762332	          3.67236765	          0.29561819	          0.00999999	          0.01000000	          0.00999999	          0.11665631	          0.02082799	          0.06872376	          0.00999999	          0.27621307	          0.03682518	          0.01162262	          0.10972196	          0.11945628	          0.00999999	          0.19802641	          0.06076467	          0.00999999	          0.26010034	          0.25060956	          0.05721357	          0.09649434	          0.29717112	          0.02692850	          0.01000000	          0.04485356	          0.01000000	          0.00999999	          0.62804432	
          1.51877777	         -5.98681689	          0.86498268	         -7.82648983	          2.29248033	          0.83760051	          0.00584698	        -13.20468311	         -1.49153217	          1.36706808	        -23.76737934	         -3.40033676	         35.22631371	         31.90252713	         -0.66713310	         -3.31944599	        -17.27586228	          2.61880871	          0.16673099	        -12.88387369	         -1.80516470	          3.74085234	          0.33188222	          0.00999999	          0.01000000	          0.00999999	          0.13499347	          0.01865148	          0.06700814	          0.00999999	          0.23765118	          0.03168405	          0.00999999	          0.09440377	          0.10277908	          0.00999999	          0.19069578	          0.05228136	          0.00999999	          0.26501914	          0.26503258	          0.04922603	          0.08302284	          0.29950857	          0.02316904	          0.01000001	          0.07292861	          0.01000000	          0.00999999	          0.54036354	
